<?xml version="1.0" encoding="UTF-8"?>
<!-- Created with Inkscape (http://www.inkscape.org/) -->
<svg width="592" height="640" version="1.1" viewBox="0 0 592 640" xmlns="http://www.w3.org/2000/svg" xmlns:cc="http://creativecommons.org/ns#" xmlns:dc="http://purl.org/dc/elements/1.1/" xmlns:rdf="http://www.w3.org/1999/02/22-rdf-syntax-ns#">
 <metadata>
  <rdf:RDF>
   <cc:Work rdf:about="">
    <dc:format>image/svg+xml</dc:format>
    <dc:type rdf:resource="http://purl.org/dc/dcmitype/StillImage"/>
    <dc:title/>
   </cc:Work>
  </rdf:RDF>
 </metadata>
 <path d="m-1.5059 312.47v-320h592v640h-592z" fill="none"/>
 <path d="m357.27 627.4c-14.086-3.4086-25.022-10.276-38.363-24.09-8.4384-8.7379-11.727-13.003-17.227-22.342-8.1216-13.79-17.067-37.507-21.307-56.494-3.0088-13.473-3.6123-53.279-1.4706-97 0.87563-17.875 1.5914-33.563 1.5906-34.861-1e-3 -2.183-0.28208-2.3086-3.7169-1.6643-8.6486 1.6225-11.951 5.6515-14.839 18.103-0.84447 3.6413-4.2206 22.438-7.5025 41.771-9.2627 54.564-13.715 70.116-24.706 86.301-8.1493 12-24.629 24.959-39.947 31.411-6.9208 2.9153-9.089 3.3316-19.424 3.7292-20.442 0.78652-44.319-3.0993-57.367-9.336-16.591-7.9304-40.514-36.915-54.482-66.007-5.5593-11.58-6.1478-12.377-15.005-20.327-11.512-10.333-18.06-17.592-28.621-31.73-11.85-15.863-13.392-19.079-13.392-27.933 0-9.2 1.6086-25.542 3.5715-36.283 4.2877-23.463 16.636-43.107 36.698-58.379 9.7547-7.4256 24.172-15.149 32.239-17.269 10.652-2.8002 30.284-4.5117 63.492-5.535 34.88-1.0749 55.357-2.4217 61.153-4.0221 4.2856-1.1833 8.8471-4.5438 8.8471-6.5178 0-4.1061-9.0183-5.728-55.5-9.9814-43.805-4.0085-69.24-8.2041-85.96-14.18-9.9936-3.5715-26.259-11.617-34.772-17.2-8.065-5.2891-20.135-17.447-24.19-24.368-3.7168-6.3422-5.5406-16.269-5.5526-30.222-0.020604-23.871 6.5033-40.183 23.271-58.185 6.3617-6.83 31.622-28.41 40.012-34.183 2.5793-1.7746 5.4171-4.6679 6.3062-6.4295 4.3761-8.6708 36.055-48.284 46.697-58.393 15.031-14.278 27.522-22.323 42.189-27.175 18.136-5.999 29.675-6.147 46.22-0.59298 25.582 8.5877 46.72 25.88 56.225 45.996 7.0715 14.967 9.2446 26.751 16.59 89.962 6.2768 54.016 7.4969 60.379 11.017 57.457 2.3538-1.9535 3.4993-12.54 7.9487-73.457 2.2325-30.566 4.3439-50.296 6.0012-56.08 1.6825-5.8723 14.532-25.697 23.151-35.718 10.8-12.556 27.491-24.997 44.642-33.273 11.451-5.5258 20.072-7.3887 34.295-7.411 18.718-0.02931 30.869 4.28 47.276 16.766 9.1778 6.9847 17.838 16.932 30.364 34.878 13.073 18.73 20.089 25.635 37.77 37.178 7.975 5.2061 17.432 11.386 21.016 13.734 12.853 8.42 24.281 23.228 29.638 38.4 1.8883 5.3484 2.3069 8.6018 2.3193 18.026 0.0376 28.419-7.441 54.751-20.05 70.597-14.125 17.751-45.038 37.508-74.873 47.852-12.667 4.3918-24.907 6.4315-66.271 11.044-40.831 4.5532-40.566 4.5136-42.893 6.4022-1.7772 1.4424-1.8286 1.8069-0.50826 3.6047 1.44 1.9607 2.4442 1.994 51.078 1.6946 77.765-0.47876 96.065 1.6798 122.04 14.396 17.179 8.4083 29.142 20.823 38.831 40.299l5.169 10.389 0.35642 12.491c0.54147 18.977-2.3224 42.057-6.7911 54.73-0.96967 2.75-4.0503 8.9775-6.8458 13.839-4.6324 8.0556-5.7585 9.2824-12.707 13.844-12.477 8.1911-27.394 27.625-39.006 50.817-11.292 22.552-14.134 26.741-26.306 38.765-12.299 12.15-20.66 17.806-32.688 22.11-6.0768 2.1748-8.6138 2.4998-19.013 2.4358-24.159-0.14864-39.102-6.8357-63.666-28.492-12.262-10.81-34.071-38.846-40.012-51.438-1.7293-3.6648-5.0614-15.494-8.3095-29.5-5.9911-25.833-6.8148-28.868-12.682-46.72-2.2301-6.7858-4.4062-11.961-4.8357-11.5-1.4865 1.5951-4.1029 15.737-4.6745 25.267-0.6648 11.083 1.1441 46.189 3.2672 63.406 3.1194 25.297 7.1522 41.011 15.548 60.579 7.3105 17.039 12.521 24.661 27.41 40.096 9.1044 9.4382 13.589 14.865 14.457 17.494 1.387 4.2027 0.79655 15.136-0.99858 18.49-1.2717 2.3762-2.1418 2.3714-12.225-0.0685z" fill="#b7d8c6"/>
 <path d="m358.94 626.94c-13.928-3.0593-23.017-8.2201-35.527-20.172-4.4533-4.2547-10.776-11.292-14.051-15.638-13.138-17.436-25.506-49.246-29.998-77.159-1.7297-10.747-1.4697-53.337 0.56716-92.905 0.87499-16.998 1.3778-31.118 1.1172-31.378s-2.6284 0.0634-5.262 0.71988c-12.212 3.0439-12.514 3.8725-22.271 61.063-9.2125 53.997-12.816 67.023-22.873 82.689-10.123 15.767-29.543 30.494-47.075 35.699-14.997 4.4522-55.6-0.0492-71.047-7.8766-15.852-8.0326-40.425-38.236-53.517-65.779-4.1176-8.6626-6.6595-12.685-9.776-15.469-17.447-15.587-33.374-33.926-43.057-49.575l-3.8285-6.1875 0.53474-15c1.157-32.455 6.8522-51.24 20.922-69.009 9.6988-12.249 22.385-22.411 37.201-29.8 15.302-7.6313 26.951-9.2214 82.038-11.198 40.324-1.447 54.854-2.6062 58.936-4.7019 2.9716-1.5258 6.5268-4.963 6.5268-6.3101 0-4.7255-7.774-6.251-53.5-10.499-59.028-5.4834-80.312-9.7641-104.05-20.927-14.593-6.8631-25.301-14.112-33.328-22.562-9.2603-9.7487-11.952-14.2-13.808-22.84-2.3369-10.875-2.052-30.198 0.59218-40.152 4.0744-15.339 12.593-29.13 25.723-41.641 7.5432-7.1881 31.448-26.829 35.503-29.171 1.9981-1.1537 4.4731-3.6834 5.5-5.6215 5.046-9.5236 33.352-45.214 45.345-57.176 22.314-22.255 44.813-33.279 68.022-33.33 10.2-0.02234 17.879 1.8218 31.332 7.5244 16.009 6.786 34.994 22.545 42.627 35.383 5.1738 8.7023 10.579 26.063 12.93 41.532 1.1287 7.425 4.098 31.012 6.5984 52.415 6.8274 58.442 7.2142 60.585 10.933 60.585 3.9406 0 4.8139-5.8605 8.5682-57.5 2.4439-33.615 4.7026-58.663 6.0869-67.5 2.4346-15.542 24.904-45.224 45.375-59.939 24.264-17.442 43.868-23.743 65.65-21.1 14.961 1.8153 26.122 6.7532 39.537 17.491 9.4207 7.541 16.191 15.425 29.1 33.891 13.265 18.973 20.065 25.648 37.97 37.268 24.87 16.141 27.612 18.1 32.998 23.587 6.3654 6.4836 14.374 19.599 17.468 28.606 1.9525 5.6843 2.2759 8.5098 2.14 18.696-0.27122 20.331-6.0762 46.422-13.016 58.5-9.8228 17.097-30.338 33.971-57.797 47.54-26.164 12.929-35.636 15.185-88 20.965-45.479 5.0197-46.5 5.2302-46.5 9.5821 0 4.2592 1.8061 4.3898 56.5 4.0837 52.449-0.29351 69.726 0.39632 85.669 3.4206 23.843 4.5229 46.522 16.492 58.083 30.654 4.3642 5.346 11.532 17.216 14.645 24.254 4.4189 9.9897 4.8114 22.683 1.4998 48.501-2.1304 16.608-4.7219 25.078-11.208 36.63-5.2506 9.3516-6.1761 10.428-12.037 14-13.529 8.2446-28.485 28.054-42.772 56.652-9.276 18.567-13.753 24.817-25.804 36.023-11.388 10.59-20.254 16.377-30.545 19.935-8.4992 2.9393-26.806 3.1062-37.53 0.34213-26.256-6.7674-54.538-31.397-78.775-68.602-6.5742-10.092-8.219-14.917-14.31-41.982-4.5185-20.078-15.726-57-17.302-57-0.43834 0-1.8598 4.6125-3.1588 10.25-2.0799 9.0262-2.3432 12.498-2.2057 29.074 0.26874 32.389 3.5287 63.555 8.8688 84.788 4.129 16.417 14.047 39.657 21.718 50.888 1.6904 2.475 8.5384 10.125 15.218 17s12.939 14.041 13.911 15.923c2.0281 3.9302 2.2719 10.674 0.60812 16.827-1.2868 4.7581-1.3135 4.765-10.63 2.7186z" fill="#9ecab1"/>
 <path d="m356.69 625.95c-5.1186-1.3016-12.094-3.9303-15.5-5.8415-11.897-6.6749-25.631-20.152-35.651-34.985-8.5151-12.605-19.732-41.124-24.069-61.197-3.1822-14.729-3.6725-46.426-1.4684-94.923 0.96496-21.232 1.4918-38.866 1.1709-39.187-0.32098-0.32097-2.6272-0.27713-5.125 0.0974-4.9293 0.73919-9.7913 4.1652-11.962 8.429-2.1931 4.3073-5.2102 18.839-10.616 51.131-8.7731 52.408-12.507 66.774-21.178 81.479-9.1981 15.599-25.683 29.532-43.274 36.576-6.4849 2.5967-9.7928 3.2748-17.984 3.6865-18.946 0.95231-44.517-3.1394-57.177-9.1493-16.469-7.8178-40.249-36.577-54.327-65.7-6.0383-12.492-6.1858-12.687-16-21.215-15.719-13.659-38.995-43.698-40.667-52.483-0.85239-4.477 1.164-30.496 3.1918-41.185 5.121-26.996 19.644-47.86 44.513-63.95 20.509-13.269 30.9-15.235 90.166-17.055 33.665-1.0338 52.359-2.3134 58.798-4.0249 1.9443-0.51673 5.0758-2.5292 6.959-4.4721l3.4239-3.5326-2.0595-2.0595c-3.32-3.32-12.778-4.7399-59.359-8.9113-39.916-3.5746-64.837-7.8405-82.921-14.194-10.995-3.863-27.838-12.456-36.931-18.842-7.7566-5.4472-18.924-17.77-22.047-24.328-2.8981-6.0854-4.4543-19.162-3.8104-32.017 1.1632-23.224 8.3833-38.229 27.34-56.821 9.5706-9.3861 31.912-27.995 36.389-30.311 1.5132-0.78252 4.0065-3.5754 5.5406-6.2064 6.2341-10.692 34.605-46.521 44.734-56.494 21.917-21.579 45.03-32.764 67.746-32.783 20.723-0.017 44.021 10.838 62.044 28.908 7.8763 7.8968 10.323 11.121 13.732 18.097 8.1346 16.644 9.9539 26.173 17.674 92.568 6.1998 53.321 7.1761 58.42 11.184 58.42 3.6586 0 5.3409-11.45 8.8149-60 3.9607-55.35 5.6257-69.318 9.0741-76.123 4.4026-8.6881 16.34-25.57 23.511-33.248 13.151-14.082 35.94-29.27 51.426-34.274 6.1152-1.9759 10.855-2.7062 20.117-3.0996 14.7-0.62437 23.472 1.0393 35.029 6.6441 17.139 8.3116 28.667 19.76 47.808 47.478 11.087 16.055 17.893 22.514 36.546 34.686 31.44 20.515 35.072 23.732 43.581 38.603 7.3493 12.844 8.79 19.07 8.1474 35.21-0.88681 22.272-6.0718 43.605-13.803 56.79-1.8815 3.209-7.697 10.115-12.923 15.348-13.6 13.615-31.463 25.358-52.453 34.48-22.133 9.6196-29.611 11.164-82.442 17.026-37.022 4.1078-40.752 4.6968-42.815 6.7595-1.7788 1.7788-0.98671 5.1572 1.4956 6.3787 0.94156 0.46331 27.812 0.85253 59.712 0.86493 65.677 0.0255 74.895 0.71762 94.745 7.1128 16.534 5.3267 26.941 10.989 36.47 19.842 8.9625 8.3264 14.186 15.564 20.586 28.523l4.1979 8.5-0.0244 17.5c-0.0258 18.526-1.9547 34.935-5.4124 46.045-1.0206 3.2793-4.4122 10.438-7.5369 15.909-4.7584 8.331-6.4402 10.39-10.354 12.676-9.6785 5.654-22.547 20.106-33.078 37.149-2.6238 4.2462-8.5369 15.145-13.14 24.22l-8.3697 16.5-13.042 13.033c-10.805 10.797-14.415 13.741-21.042 17.159-11.901 6.1389-18.164 7.6943-30.5 7.5747-18.082-0.17541-33.055-5.428-48.716-17.09-16.659-12.405-29.426-26.147-44.701-48.116-9.4395-13.576-11.281-18.114-16.048-39.561-6.308-28.375-16.943-64.47-19.22-65.228-1.9164-0.63881-5.4776 17.233-6.0478 30.35-0.90261 20.766 2.223 61.768 6.3179 82.878 3.5564 18.334 9.5589 35.303 18.664 52.761 5.0877 9.7552 15.28 22.328 27.725 34.199 7.4981 7.1525 9.4208 11.41 8.6896 19.24-0.57241 6.1298-2.0065 10.38-3.4487 10.221-0.39315-0.0434-4.9028-1.1439-10.021-2.4455z" fill="#84bc9d"/>
 <path d="m355.84 625.49c-13.079-3.4285-23.292-10.02-35.915-23.179-14.999-15.636-25.31-34.345-33.34-60.5-6.7808-22.085-7.512-27.926-7.5537-60.336-0.0331-25.771 1.7996-80.779 2.9335-88.047 0.73582-4.7165-0.56037-5.3597-7.0182-3.4823-12.018 3.4936-12.816 5.7862-22.857 65.608-7.5516 44.992-11.454 59.912-19.327 73.888-11.61 20.611-35.387 37.901-56.672 41.21-5.7948 0.90089-10.689 0.88963-21.31-0.0491-37.266-3.2936-49.1-9.1817-69.594-34.628-10.821-13.436-17.68-24.147-25.183-39.326-5.9862-12.11-6.6801-13.053-15.584-21.174-14.398-13.133-24.921-25.393-35.077-40.868-6.7083-10.221-7.1853-12.574-5.8713-28.959 1.8184-22.675 5.0229-37.117 10.799-48.673 9.249-18.502 28.082-36.392 48.424-45.999 13.608-6.4271 23.537-7.9771 60.799-9.4919 73.774-2.9991 77.669-3.4014 83.077-8.5825 3.5279-3.38 3.6161-4.4267 0.61042-7.2503-2.9386-2.7607-12.569-4.2316-50.187-7.6657-62.608-5.7153-83.804-10.117-108.58-22.549-15.554-7.8051-21.949-12.22-30.178-20.833-12.038-12.601-14.258-17.944-15.42-37.128-1.4187-23.41 6.0219-43.491 22.78-61.481 6.4921-6.9691 32.655-29.346 39.974-34.189 2.4277-1.6066 6.0902-5.8368 9.2987-10.74 8.6678-13.246 30.41-40.296 41.124-51.162 17.561-17.811 32.772-27.329 51.11-31.981 12.917-3.2766 22.418-3.2433 34.023 0.11947 26.962 7.8133 48.773 24.392 59.112 44.934 7.1674 14.239 10.101 28.7 15.721 77.5 4.8926 42.48 7.4431 62.004 8.8382 67.656 1.0165 4.1186 1.5898 4.8897 3.8285 5.1491 4.7223 0.54726 5.482-4.0547 9.3765-56.805 3.0042-40.691 5.1231-63.561 6.54-70.591 2.0068-9.9559 16.127-31.41 29.531-44.871 13.842-13.9 36.81-28.033 52.419-32.255 10.101-2.7326 30.226-2.4502 40 0.56128 20.245 6.238 36.474 20.136 54.909 47.022 14.602 21.296 20.099 26.668 41.591 40.645 24.252 15.772 25.479 16.68 31.882 23.592 6.7714 7.3102 14.436 20.87 17.175 30.385 4.2703 14.834-1.8069 53.775-11.174 71.601-11.574 22.025-41.904 44.254-79.486 58.255-12.515 4.6624-25.572 6.9449-63.897 11.17-17.325 1.9101-34.875 3.9677-39 4.5724-7.6948 1.1281-11 2.9142-11 5.9446 0 4.4419 0.24371 4.4608 58.905 4.5874 68.813 0.14844 80.713 1.156 102.61 8.6874 24.882 8.5588 39.944 21.802 51.604 45.371 4.6755 9.4515 5.0746 10.844 5.5868 19.5 0.95587 16.151-3.0418 47.215-7.4748 58.083-0.95076 2.331-3.8973 8.0792-6.5478 12.774-4.3499 7.7044-5.459 8.9216-11.39 12.5-12.676 7.6484-28.474 28.555-42.77 56.603-10.41 20.423-11.932 22.571-24.899 35.151-9.4315 9.1492-12.59 11.529-20.785 15.661-12.242 6.1725-18.298 7.4436-32.337 6.787-30.97-1.4484-57.876-20.425-87.535-61.737-12.206-17.001-12.166-16.893-22.438-61-3.1708-13.616-14.277-48-15.504-48-0.4708 0-1.906 4.1625-3.1893 9.25-2.152 8.5311-2.3287 11.232-2.2741 34.75 0.10748 46.276 4.9626 78.206 16 105.22 9.107 22.293 12.911 28.114 29.722 45.477 15.873 16.395 17.075 18.88 14.637 30.25-1.2741 5.9408-1.9842 6.1012-13.57 3.064z" fill="#6db18b"/>
 <path d="m357.13 625.41c-4.3235-1.0685-10.955-3.5688-14.738-5.5564-13.71-7.2046-30.301-24.214-39.784-40.789-9.0226-15.77-17.97-41.401-21.688-62.13-2.2907-12.77-2.2785-50.365 0.031-95.374 0.9191-17.912 1.2365-31.79 0.73839-32.288-1.3579-1.3579-8.9568 0.23882-12.503 2.6272-6.7862 4.5708-8.5809 10.848-16.251 56.839-8.2542 49.492-11.822 64.01-19.145 77.906-6.2056 11.776-11.85 18.68-21.531 26.335-9.1084 7.2024-18.174 12.284-27.486 15.409-10.776 3.6155-39.631 2.3966-58.555-2.4733-10.794-2.7778-18.358-7.0673-26.982-15.303-15.484-14.786-29.068-33.709-39.222-54.637-6.1847-12.748-6.4798-13.148-15.198-20.599-10.342-8.8396-16.886-16.091-28.523-31.608-13.08-17.441-13.216-17.82-12.483-34.696 1.5561-35.815 8.7076-55.283 27.466-74.768 13.336-13.852 29.99-24.144 45.107-27.874 11.789-2.909 24.389-3.9274 67.608-5.4639 35.962-1.2785 51.016-2.367 57-4.1216 1.1-0.32253 3.6658-2.1826 5.7018-4.1336 2.9889-2.8641 3.5128-3.9003 2.7204-5.381-2.4338-4.5477-10.49-5.9549-59.422-10.38-60.359-5.4587-85.036-11.574-113.29-28.075-6.9969-4.0864-11.952-7.9704-17.726-13.894-13.138-13.479-15.796-20.757-15.706-43.006 0.096919-23.835 7.4305-40.683 25.625-58.87 7.9618-7.9585 32.474-28.446 37.778-31.576 1.8873-1.1136 4.5068-3.9379 5.8211-6.2764 3.3438-5.9494 20.771-28.898 33.246-43.778 25.474-30.386 51.864-45.505 79.249-45.402 8.5401 0.03212 11.345 0.49748 19.212 3.1876 17.564 6.0064 28.443 12.414 40.151 23.649 11.971 11.488 17.556 21.033 22.102 37.777 3.0988 11.414 4.6402 21.789 10.039 67.569 5.4573 46.276 7.4715 60.369 9.0499 63.318 0.58166 1.0868 2.0841 1.9014 3.5071 1.9014 4.4331 0 5.4253-5.3141 8.4022-45 5.6944-75.914 6.6002-83.772 10.532-91.364 16.283-31.439 49.442-60.126 78.376-67.804 10.051-2.6671 27.874-2.8853 37.13-0.4544 22.347 5.8691 39.187 20.34 60.928 52.358 11.153 16.424 17.243 22.06 40.061 37.074 11.281 7.4221 22.861 15.475 25.733 17.896 6.4902 5.4702 15.55 18.926 19.591 29.098 2.7951 7.0353 3.0558 8.6849 3.0341 19.197-0.0433 20.9-4.9479 43.62-12.618 58.451-10.147 19.62-38.513 41.153-72.445 54.995-18.184 7.4181-26.798 9.0073-81.57 15.05-17.482 1.9288-33.345 4.1582-35.25 4.9543-4.3968 1.8371-4.7861 5.6374-0.84214 8.2216 2.402 1.5738 7.6723 1.7245 62.75 1.794 66.483 0.0839 72.116 0.49489 91.384 6.6669 18.301 5.8625 26.966 10.707 38.111 21.31 11.501 10.941 21.431 28.544 23.22 41.162 1.6114 11.365-1.4394 42.15-5.6878 57.396-0.84297 3.025-4.1182 9.9869-7.2782 15.471-5.1031 8.8561-6.366 10.334-11.296 13.214-12.466 7.2841-28.856 28.657-42.242 55.085-9.4115 18.581-14.286 26.122-20.709 32.038-2.8014 2.5804-7.8567 7.3928-11.234 10.694-7.1904 7.0289-19.451 13.567-30.141 16.073-13.043 3.0577-34.688-0.077-48.356-7.0028-14.89-7.5454-35.796-26.929-51.309-47.573-13.152-17.502-17.07-25.067-20.457-39.5-7.368-31.4-10.78-44.438-15.44-59-5.0126-15.664-6.2587-18.513-7.5381-17.233-1.2433 1.2433-4.3986 16.396-5.3586 25.733-0.63956 6.2207-0.63214 17.094 0.0215 31.5 2.1763 47.964 7.0425 72.892 19.787 101.36 6.8916 15.395 12.476 23.32 26.318 37.35 6.5702 6.6596 12.654 13.477 13.519 15.15 2.668 5.1594 1.4171 18.908-1.7586 19.328-0.78544 0.10392-4.9655-0.68525-9.2889-1.7537z" fill="#4ea173"/>
 <path d="m355.84 624.49c-11.874-3.1128-20.015-7.9636-31.419-18.721-16.559-15.621-28.737-37.037-37.341-65.67-6.6521-22.136-7.1075-26.364-6.9062-64.124 0.0997-18.7 0.82298-45.7 1.6073-60 1.139-20.766 1.1752-26.272 0.1798-27.353-1.9802-2.1502-12.107 1.1908-15.946 5.2607-4.8413 5.1332-6.8983 13.556-14.554 59.593-9.9564 59.87-15.314 75.295-31.968 92.042-14.856 14.939-31.814 23.571-48.295 24.583-15.368 0.94376-43.266-3.2006-55.25-8.2078-9.6225-4.0205-20.928-14.478-33.741-31.211-10.145-13.249-13.987-19.455-21.794-35.206-4.3846-8.8463-7.6824-14.225-9.5667-15.603-15.392-11.258-43.39-45.39-46.399-56.566-2.0929-7.7724 1.5507-40.136 6.173-54.831 6.3733-20.262 22.13-38.933 43.898-52.015 18.686-11.23 30.046-13.094 91.398-14.995 32.384-1.0032 48.221-2.1672 54.677-4.0187 3.8837-1.1138 9.8998-6.6435 9.8998-9.0993 0-0.95466-1.255-2.6294-2.7888-3.7215-4.2357-3.0161-11.956-4.1283-56.711-8.1693-55.383-5.0008-78.49-9.9602-102.64-22.03-14.719-7.3565-22.766-12.971-30.382-21.197-9.3619-10.112-11.435-14.079-13.079-25.025-2.5039-16.674-1.5359-28.712 3.4853-43.347 5.5051-16.046 17.126-29.724 43.522-51.224 7.6493-6.2305 14.943-11.722 16.209-12.203 1.2657-0.48121 3.1966-2.63 4.291-4.7752 2.2767-4.4628 13.715-20.051 25.447-34.68 26.063-32.498 44.819-46.854 69.341-53.075 18.027-4.5729 32.141-2.5554 52.804 7.5476 17.069 8.3458 31.358 21.562 38.861 35.941 7.8665 15.077 10.212 27.152 17.689 91.086 5.3008 45.321 7.1172 57.292 9.0462 59.616 0.63161 0.76104 2.2412 1.3837 3.577 1.3837 5.1063 0 5.8887-4.8623 10.317-64.118 3.934-52.639 5.3688-64.803 8.4342-71.498 8.2966-18.122 29.053-41.782 47.075-53.659 20.44-13.471 31.423-17.176 51-17.205 10.859-0.01591 14.235 0.36611 20.5 2.3198 18.114 5.6488 33.768 18.138 48.5 38.695 14.934 20.839 21.686 29.461 26.253 33.529 2.6107 2.325 14.465 10.653 26.344 18.506 24.609 16.27 29.785 21.169 37.11 35.12 7.0339 13.398 8.1897 18.469 7.4769 32.801-1.4466 29.086-8.2758 51.061-20.462 65.842-17.842 21.641-59.907 44.971-91.325 50.652-6.2683 1.1334-25.572 3.6264-42.897 5.5401-39.434 4.3559-45.793 5.2947-48.682 7.1875-2.8888 1.8928-2.9825 5.3784-0.21187 7.884 2.0151 1.8224 4.5192 1.9097 57.75 2.0144 68.263 0.13416 79.088 1.0005 100.64 8.0545 26.577 8.6974 42.559 22.867 54.194 48.05 2.9086 6.2952 3.5697 9.0346 4.021 16.66 1.0158 17.167-3.2856 48.639-8.0782 59.108-5.6697 12.384-10.449 19.231-15.665 22.44-14.378 8.8469-29.684 28.947-44.911 58.979-9.937 19.598-12.317 22.891-25.383 35.116-11.559 10.816-21.376 16.664-32.967 19.638-9.3369 2.396-26.583 1.408-37.711-2.1603-10.916-3.5-13.857-5.0342-23.832-12.43-16.091-11.931-29.116-25.424-42.052-43.565-11.854-16.623-13.535-20.162-17.568-37-1.9761-8.25-4.9851-20.791-6.6868-27.87-4.3158-17.953-14.172-47.13-15.921-47.13-0.91616 0-2.1923 3.2177-3.7676 9.5-3.046 12.148-3.8615 33.605-2.248 59.15 2.589 40.988 7.2546 63.318 18.639 89.206 7.2112 16.398 11.543 22.651 26.401 38.107 15.127 15.736 16.705 18.43 15.613 26.659-1.1908 8.9769-1.2914 9.0217-13.231 5.8917z" fill="#1e8950"/>
 <path d="m354.49 623.13c-10.066-2.9976-16.67-6.7647-25.968-14.812-17.922-15.513-30.404-36.156-39.878-65.953-7.973-25.076-9.3488-44.233-7.0582-98.272 0.77221-18.217 1.404-38.522 1.404-45.122v-12l-4 0.31957c-5.8109 0.46424-11.844 3.4511-14.77 7.3116-4.161 5.4916-6.0534 13.729-13.744 59.827-7.5201 45.073-11.598 60.697-19.417 74.385-5.9767 10.463-10.442 15.738-19.246 22.734-20.383 16.198-35.063 20.004-63.823 16.549-25.726-3.0907-35.669-6.946-47.807-18.537-15.227-14.541-28.189-32.582-38.725-53.897-6.6711-13.496-6.8954-13.801-15.805-21.423-12.072-10.328-26.079-26.812-36.766-43.268l-3.8965-6 0.14482-11c0.29027-22.048 4.2794-43.424 10.372-55.578 12.15-24.239 39.718-46.33 63.983-51.272 11.609-2.3643 27.551-3.5185 64.5-4.6698 35.18-1.0962 50.48-2.209 56.5-4.1096 4.0599-1.2818 11-7.5276 11-9.8996 0-3.0824-4.5041-5.9758-11.585-7.4421-3.8032-0.78755-19.29-2.5941-34.415-4.0146-59.818-5.6178-78.42-8.5579-99.469-15.722-8.701-2.9612-30.481-14.182-37.367-19.252-7.0673-5.2027-17.748-17.337-20.225-22.978-3.7893-8.6292-5.0105-28.821-2.5234-41.725 3.2255-16.734 10.052-29.137 23.455-42.616 8.5172-8.5654 33.016-29.081 38.156-31.953 1.9285-1.0774 4.8488-4.3956 7.0398-7.999 4.734-7.7858 18.679-26.098 32.211-42.296 23.611-28.266 48.663-43.352 74.235-44.706 12.403-0.65678 22.148 1.5496 36.16 8.187 19.295 9.1402 34.039 22.828 41.716 38.726 7.653 15.849 9.1048 23.495 16.618 87.52 5.7901 49.338 7.2814 58.855 9.6283 61.448 2.3168 2.5601 6.0018 2.3364 7.8447-0.47614 2.8218-4.3065 3.5929-11.133 8.0396-71.172 2.8682-38.727 4.9264-57.258 6.8675-61.832 0.73947-1.7425 5.059-8.7931 9.5989-15.668 10.227-15.487 23.278-28.781 37.571-38.271 19.323-12.829 33.523-17.746 51.152-17.711 28.545 0.05637 49.28 13.799 73.767 48.89 16.446 23.568 21.063 27.856 49.713 46.177 7.8716 5.0336 16.467 10.956 19.102 13.16 6.211 5.198 12.563 14.175 17.921 25.327l4.2895 8.9284-0.0373 14.5c-0.0818 31.756-7.7125 55.596-22.996 71.842-13.408 14.252-33.807 27.889-55.297 36.965-22.433 9.4743-29.468 10.906-81.872 16.659-36.27 3.982-41.38 4.863-43.817 7.5559-1.9177 2.1191-1.4604 5.8562 1.0202 8.3368 2.5654 2.5654 11.693 2.9649 53.509 2.342 55.403-0.82524 82.798 0.7823 99.99 5.8674 29.217 8.642 46.609 23.313 59.191 49.933l3.3088 7-0.0479 16.5c-0.0813 27.988-3.6745 45.308-12.678 61.111-4.4398 7.793-5.8284 9.3844-10.849 12.434-13.11 7.9638-30.343 30.676-44.368 58.475-9.0197 17.878-12.269 22.901-18.409 28.462-2.4397 2.2094-7.1835 6.7789-10.542 10.154-6.5192 6.5526-18.668 13.468-28.106 15.998-12.303 3.2989-33.994 0.81609-47.726-5.4626-17.514-8.0085-39.54-29.014-58.598-55.883-10.661-15.03-11.452-17.146-19.181-51.29-4.2507-18.777-16.192-57.386-18.116-58.575-1.8872-1.1664-3.0878 1.2639-5.5579 11.249-3.1549 12.755-3.969 32.438-2.3914 57.826 2.6547 42.72 7.4825 65.633 19.491 92.502 7.2023 16.115 12.727 23.974 27.169 38.649 13.842 14.065 15.129 16.438 13.966 25.748-0.65621 5.2522-0.86684 5.5981-3.3779 5.5479-1.4729-0.0295-6.053-1.0586-10.178-2.287z" fill="#007d3d"/>
</svg>
